<?xml version="1.0" encoding="utf-8"?>
<!-- Generator: Adobe Illustrator 24.3.0, SVG Export Plug-In . SVG Version: 6.00 Build 0)  -->
<svg version="1.1" id="Layer_1" xmlns="http://www.w3.org/2000/svg" xmlns:xlink="http://www.w3.org/1999/xlink" x="0px" y="0px"
	 viewBox="0 0 512 512" style="enable-background:new 0 0 512 512;" xml:space="preserve">
<style type="text/css">
	.st0{fill:url(#SVGID_1_);}
	.st1{fill:url(#SVGID_2_);}
	.st2{fill:url(#SVGID_3_);}
	.st3{fill:url(#SVGID_4_);}
	.st4{fill:#FFFFFF;}
</style>
<g id="XMLID_1_">
	
		<linearGradient id="SVGID_1_" gradientUnits="userSpaceOnUse" x1="-339.4659" y1="572.0682" x2="-337.4659" y2="572.0682" gradientTransform="matrix(85.58 0 0 -127.4498 29214.2461 73020.7891)">
		<stop  offset="0" style="stop-color:#ED358C"/>
		<stop  offset="0.16" style="stop-color:#E9388C"/>
		<stop  offset="0.3" style="stop-color:#DE418C"/>
		<stop  offset="0.43" style="stop-color:#CC508C"/>
		<stop  offset="0.57" style="stop-color:#B2658D"/>
		<stop  offset="0.7" style="stop-color:#90808D"/>
		<stop  offset="0.83" style="stop-color:#67A18E"/>
		<stop  offset="0.95" style="stop-color:#37C78F"/>
		<stop  offset="1" style="stop-color:#22D88F"/>
	</linearGradient>
	<polygon class="st0" points="196.8,207.18 162.44,221.63 193.58,0 311.27,64.81 	"/>
	
		<linearGradient id="SVGID_2_" gradientUnits="userSpaceOnUse" x1="-343.6924" y1="573.9846" x2="-341.6924" y2="573.9846" gradientTransform="matrix(-37.64 252.64 131.1578 72.5033 -88088.8203 45280.3008)">
		<stop  offset="0" style="stop-color:#22D88F"/>
		<stop  offset="0.09" style="stop-color:#22D88F"/>
		<stop  offset="0.9" style="stop-color:#029DE0"/>
		<stop  offset="1" style="stop-color:#029DE0"/>
	</linearGradient>
	<polygon class="st1" points="178.43,307.2 195.26,0 47.13,92.86 0,375.93 	"/>
	
		<linearGradient id="SVGID_3_" gradientUnits="userSpaceOnUse" x1="-340.5993" y1="571.995" x2="-338.5993" y2="571.995" gradientTransform="matrix(-29377.1406 -32531.2012 -34108.8008 28018.3887 9363080 -27262830)">
		<stop  offset="0" style="stop-color:#22D88F"/>
		<stop  offset="0.09" style="stop-color:#22D88F"/>
		<stop  offset="0.9" style="stop-color:#029DE0"/>
		<stop  offset="1" style="stop-color:#029DE0"/>
	</linearGradient>
	<polygon class="st2" points="501.62,153.6 435.97,19.22 311.27,64.81 219.95,165.66 0,375.93 166.36,497.55 374.39,308.74 	"/>
	
		<linearGradient id="SVGID_4_" gradientUnits="userSpaceOnUse" x1="-338.3456" y1="571.9703" x2="-336.3455" y2="571.9703" gradientTransform="matrix(6478.3105 -1021.7312 -1133.0916 -5841.6216 2899933.75 2986500)">
		<stop  offset="0" style="stop-color:#22D88F"/>
		<stop  offset="0.09" style="stop-color:#22D88F"/>
		<stop  offset="0.9" style="stop-color:#029DE0"/>
		<stop  offset="1" style="stop-color:#029DE0"/>
	</linearGradient>
	<polygon class="st3" points="215.18,218.41 186.42,393.61 303.13,483.95 431.2,512 512,329.64 	"/>
	<rect id="XMLID_2_" x="95.95" y="95.95" width="319.96" height="319.96"/>
	<path id="XMLID_3_" class="st4" d="M126.39,356.02h119.93v20.06H126.39V356.02z M124,204.8c-0.42-18.38,6.73-36.05,19.64-49.1
		c13.05-13.05,30.72-20.06,49.1-19.64c24.83,0,39.98,8,52.04,20.76l-18.38,21.6c-10.38-9.54-20.76-15.15-33.67-15.15
		c-22.44,0-38.44,18.38-38.44,41.66c0,22.44,15.99,41.66,38.44,41.66c15.15,0,24.83-6.45,35.21-15.15l18.38,18.38
		c-13.61,14.45-28.76,23.99-54.43,23.99c-18.24,0-35.63-7.29-48.39-20.2C130.88,240.43,123.72,223.04,124,204.8z M266.38,137.61
		h29.6v108.01h57.65v24.83h-87.25V137.61z"/>
</g>
</svg>
