<svg id="Groupe_473" data-name="Groupe 473" xmlns="http://www.w3.org/2000/svg" xmlns:xlink="http://www.w3.org/1999/xlink" width="320.123" height="302.054" viewBox="0 0 320.123 302.054">
  <defs>
    <clipPath id="clip-path">
      <path id="Tracé_45" data-name="Tracé 45" d="M36.494,113.254l176.72,188.359L290.221,53.865Z" transform="translate(-36.494 -53.865)" fill="none"/>
    </clipPath>
    <clipPath id="clip-path-5">
      <rect id="Rectangle_23" data-name="Rectangle 23" width="320.123" height="302.054" fill="none"/>
    </clipPath>
  </defs>
  <path id="Tracé_19" data-name="Tracé 19" d="M121.543,122.874l17.92,38.155,40.193-42.167Z" transform="translate(-30.246 -29.578)" fill="#482080"/>
  <path id="Tracé_20" data-name="Tracé 20" d="M287.1,102.862l27.227,25.455L333.5,80.511Z" transform="translate(-71.444 -20.035)" fill="#00a1ed"/>
  <path id="Tracé_21" data-name="Tracé 21" d="M356.24,57.036l3.4,14.379,5.965-4.107,4.179-13.444Z" transform="translate(-88.649 -13.404)" fill="#00a1ed"/>
  <path id="Tracé_22" data-name="Tracé 22" d="M304.5,133.4l27.023,15.63,7.053-22.694,1.728-18.291Z" transform="translate(-75.774 -26.888)" fill="#ec411b"/>
  <path id="Tracé_23" data-name="Tracé 23" d="M244.224,269.691,273.7,289.706l7.666-43Z" transform="translate(-60.774 -61.393)" fill="#e0007a"/>
  <path id="Tracé_24" data-name="Tracé 24" d="M323.757,62.818,344.084,87.59,360.8,54.147Z" transform="translate(-80.566 -13.474)" fill="#c2007a"/>
  <path id="Tracé_25" data-name="Tracé 25" d="M220.434,268.123,241.3,293.542l20.4-38Z" transform="translate(-54.854 -63.59)" fill="#e82727"/>
  <path id="Tracé_26" data-name="Tracé 26" d="M170.082,226.062l20.862,25.418,20.394-38Z" transform="translate(-42.324 -53.123)" fill="#e82727"/>
  <path id="Tracé_27" data-name="Tracé 27" d="M244.78,109.231l20.86,25.419,20.4-38Z" transform="translate(-60.913 -24.05)" fill="#e82727"/>
  <path id="Tracé_28" data-name="Tracé 28" d="M166.078,269.1l10.255,10.93,9.021-16.81Z" transform="translate(-41.328 -65.502)" fill="#e0007a"/>
  <path id="Tracé_29" data-name="Tracé 29" d="M367.849,55l3.247,3.957,1.582-5.088Z" transform="translate(-91.538 -13.404)" fill="#e0007a"/>
  <path id="Tracé_30" data-name="Tracé 30" d="M268.609,140.8l20.86,25.421,17.617-39.446Z" transform="translate(-66.842 -31.548)" fill="#00abef"/>
  <path id="Tracé_31" data-name="Tracé 31" d="M279.329,269.308l16.437,9.631,9.374-30.157Z" transform="translate(-69.51 -61.909)" fill="#880f50"/>
  <path id="Tracé_32" data-name="Tracé 32" d="M282.706,206.625l16.817,11.118,5.075-25.952Z" transform="translate(-70.351 -47.727)" fill="#880f50"/>
  <path id="Tracé_33" data-name="Tracé 33" d="M290.769,72.607l-.928,13.44,25.085-8.365-14.7-7.288Z" transform="translate(-72.126 -17.517)" fill="#e0007a"/>
  <path id="Tracé_34" data-name="Tracé 34" d="M209.92,113.382l20.045,27.5,22.2-37.238Z" transform="translate(-52.238 -25.791)" fill="#ffe815"/>
  <path id="Tracé_35" data-name="Tracé 35" d="M232,294.109,250.318,308.2l6.174-30.607Z" transform="translate(-57.733 -69.079)" fill="#f77e0b"/>
  <path id="Tracé_36" data-name="Tracé 36" d="M217.489,213.692l17.554,12.2,6.932-28.714Z" transform="translate(-54.121 -49.067)" fill="#f77e0b"/>
  <path id="Tracé_37" data-name="Tracé 37" d="M240.1,343.579,258.6,363.3l8.058-38.931Z" transform="translate(-59.748 -80.718)" fill="#00a1ed"/>
  <path id="Tracé_38" data-name="Tracé 38" d="M341.506,86.4l13.1,7.481,8.752-28.158Z" transform="translate(-84.983 -16.354)" fill="#00a1ed"/>
  <path id="Tracé_39" data-name="Tracé 39" d="M111.961,207.013l28.168,30.024,26.386-49.2Z" transform="translate(-27.861 -46.742)" fill="#00a1ed"/>
  <path id="Tracé_40" data-name="Tracé 40" d="M36.494,128.7l15.1,16.091,39.493-28.869Z" transform="translate(-9.081 -28.846)" fill="#00a1ed"/>
  <path id="Tracé_41" data-name="Tracé 41" d="M332.973,59.561l-49.91,11.683,14.174,30.175,40.191-42.166Z" transform="translate(-70.439 -14.745)" fill="#482080"/>
  <path id="Tracé_42" data-name="Tracé 42" d="M118.851,166.618l14.487,22.692L155.325,159.3Z" transform="translate(-29.576 -39.642)" fill="#f77e0b"/>
  <path id="Tracé_43" data-name="Tracé 43" d="M256.667,79.227,263,95.244l21.613-22.559Z" transform="translate(-63.871 -18.087)" fill="#ec411b"/>
  <g id="Groupe_19" data-name="Groupe 19" transform="translate(27.413 40.461)">
    <g id="Groupe_18" data-name="Groupe 18" clip-path="url(#clip-path)">
      <path id="Tracé_44" data-name="Tracé 44" d="M65.105,228.243l43.809,2.349-30.349,31.68Z" transform="translate(-43.614 -97.258)" fill="#ec411b"/>
    </g>
  </g>
  <path id="Tracé_46" data-name="Tracé 46" d="M239.414,138.752l22.142,24.241,19.526-39.064Z" transform="translate(-59.578 -30.839)" fill="#e0007a"/>
  <path id="Tracé_47" data-name="Tracé 47" d="M177.82,183.075,198.679,208.5l20.395-38.007Z" transform="translate(-44.25 -42.426)" fill="#e82727"/>
  <path id="Tracé_48" data-name="Tracé 48" d="M108.562,207.011l14.382,15.33L135.6,198.763Z" transform="translate(-27.015 -49.462)" fill="#e0007a"/>
  <path id="Tracé_49" data-name="Tracé 49" d="M245.57,92.92l20.861,25.421,20.394-38.005Z" transform="translate(-61.109 -19.991)" fill="#00a1ed"/>
  <path id="Tracé_50" data-name="Tracé 50" d="M244.818,234.274l17.427,10.135,3.581-26.2Z" transform="translate(-60.922 -54.301)" fill="#880f50"/>
  <path id="Tracé_51" data-name="Tracé 51" d="M193.594,270.276l22.137,15.274,5.076-25.952Z" transform="translate(-48.175 -64.6)" fill="#880f50"/>
  <g id="Groupe_21" data-name="Groupe 21" transform="translate(27.413 40.461)">
    <g id="Groupe_20" data-name="Groupe 20" clip-path="url(#clip-path)">
      <path id="Tracé_52" data-name="Tracé 52" d="M164.443,45.588l42.881,6.388L173.04,78.511Z" transform="translate(-68.334 -51.805)" fill="#ffe815"/>
    </g>
  </g>
  <path id="Tracé_54" data-name="Tracé 54" d="M313.853,86.821l14.889,13.443,8.84-24.551Z" transform="translate(-78.101 -18.841)" fill="#f36a10"/>
  <path id="Tracé_55" data-name="Tracé 55" d="M296.464,161.409,314.018,173.6l6.935-28.711Z" transform="translate(-73.774 -36.056)" fill="#f77e0b"/>
  <path id="Tracé_56" data-name="Tracé 56" d="M193.594,136.511l13.852,16.279,14.045-25.985Z" transform="translate(-48.175 -31.555)" fill="#00adf0"/>
  <path id="Tracé_57" data-name="Tracé 57" d="M100.169,114.223l1.178,16.588L156.2,104.906l-7-2.16Z" transform="translate(-24.927 -25.568)" fill="#880f50"/>
  <path id="Tracé_58" data-name="Tracé 58" d="M198.189,296.794l24.645,26.267L233.568,271.2Z" transform="translate(-49.319 -67.487)" fill="#00a1ed"/>
  <path id="Tracé_59" data-name="Tracé 59" d="M292.481,179.9l22.488,14.8,7.826-36.372Z" transform="translate(-72.783 -39.399)" fill="#fe0"/>
  <path id="Tracé_60" data-name="Tracé 60" d="M216.973,108.84,230.1,126.584l12.77-23.174Z" transform="translate(-53.993 -25.733)" fill="#ec411b"/>
  <path id="Tracé_61" data-name="Tracé 61" d="M240.074,84.087l4.53,11.962,21.905-14.033-11.077-1.524Z" transform="translate(-59.742 -20.03)" fill="#00a1ed"/>
  <path id="Tracé_62" data-name="Tracé 62" d="M293.471,130.569l9.587,8.355,7.04-17.473Z" transform="translate(-73.029 -30.223)" fill="#e0007a"/>
  <path id="Tracé_63" data-name="Tracé 63" d="M169.435,158.572l14.45,22.185,21.358-29.7Z" transform="translate(-42.163 -37.589)" fill="#880f50"/>
  <path id="Tracé_64" data-name="Tracé 64" d="M274.513,157.528l15.75,12.5,8.5-23.1Z" transform="translate(-68.312 -36.563)" fill="#ec411b"/>
  <path id="Tracé_65" data-name="Tracé 65" d="M233.906,91.992l10.278,18.872L260.17,89.922Z" transform="translate(-58.207 -22.377)" fill="#e0007a"/>
  <path id="Tracé_66" data-name="Tracé 66" d="M159.491,137.3l10.636,16.741,14.98-21.268Z" transform="translate(-39.689 -33.04)" fill="#00a1ed"/>
  <path id="Tracé_67" data-name="Tracé 67" d="M292.958,171.588l9.6,7.467,4.252-15.373Z" transform="translate(-72.902 -40.732)" fill="#e0007a"/>
  <path id="Tracé_68" data-name="Tracé 68" d="M309.568,134.736l9.913,7.044,3.582-15.544Z" transform="translate(-77.035 -31.413)" fill="#00a2e1"/>
  <path id="Tracé_69" data-name="Tracé 69" d="M234.4,203.189l30.963,15.318,10.594-40.1Z" transform="translate(-58.331 -44.397)" fill="#e0007a"/>
  <path id="Tracé_70" data-name="Tracé 70" d="M323.607,113.7l19.364,7.582L354.748,83.4l-.015-.327Z" transform="translate(-80.529 -20.672)" fill="#e0007a"/>
  <path id="Tracé_71" data-name="Tracé 71" d="M167.867,251.152l16.567,11.49,5.647-25.834Z" transform="translate(-41.773 -58.929)" fill="#880f50"/>
  <path id="Tracé_72" data-name="Tracé 72" d="M268.424,102.355l10.953,18.357,18.169-23.285Z" transform="translate(-66.797 -24.245)" fill="#f77e0b"/>
  <path id="Tracé_73" data-name="Tracé 73" d="M266.863,196.526l18.486,10.732,4.583-29.179Z" transform="translate(-66.408 -44.315)" fill="#f77e0b"/>
  <path id="Tracé_74" data-name="Tracé 74" d="M220.627,325.023l13,13.861,4.836-26.44Z" transform="translate(-54.903 -77.751)" fill="#fe0"/>
  <g id="Groupe_23" data-name="Groupe 23" transform="translate(27.413 40.461)">
    <g id="Groupe_22" data-name="Groupe 22" clip-path="url(#clip-path)">
      <path id="Tracé_75" data-name="Tracé 75" d="M370.792,135.7l4.579-29.181L352.3,124.967Z" transform="translate(-115.083 -66.968)" fill="#f77e0b"/>
    </g>
  </g>
  <path id="Tracé_77" data-name="Tracé 77" d="M312.075,203.871l9.3,3.054,6.6-21.241.007-.515Z" transform="translate(-77.659 -46.079)" fill="#2296c9"/>
  <path id="Tracé_78" data-name="Tracé 78" d="M180.119,282.327l19.91,21.222,4.087-32.348Z" transform="translate(-44.822 -67.487)" fill="#ec411b"/>
  <path id="Tracé_79" data-name="Tracé 79" d="M178,96.671l12.914,21.974,27.516-31.437Z" transform="translate(-44.296 -21.702)" fill="#e0007a"/>
  <path id="Tracé_80" data-name="Tracé 80" d="M98.328,144.379,109.283,161.3l15.046-21.748Z" transform="translate(-24.469 -34.728)" fill="#880f50"/>
  <path id="Tracé_81" data-name="Tracé 81" d="M301.892,69.384l7.252,11.442,11.11-15.74Z" transform="translate(-75.125 -16.196)" fill="#2296c9"/>
  <path id="Tracé_82" data-name="Tracé 82" d="M161.935,102.7l11.781,20.287,23.248-21.844-23.8-1.072Z" transform="translate(-40.297 -24.902)" fill="#f77e0b"/>
  <path id="Tracé_83" data-name="Tracé 83" d="M72.49,171.014l1.625,1.733,1.689-2.585Z" transform="translate(-18.039 -42.344)" fill="#00a1ed"/>
  <g id="Groupe_25" data-name="Groupe 25" transform="translate(27.413 40.461)">
    <g id="Groupe_24" data-name="Groupe 24" clip-path="url(#clip-path)">
      <path id="Tracé_84" data-name="Tracé 84" d="M209.558,73.306,229.66,42,193.7,51.547Z" transform="translate(-75.615 -50.913)" fill="#fe0"/>
    </g>
  </g>
  <path id="Tracé_86" data-name="Tracé 86" d="M243.653,183.678l18.291-18.686-26.146-.276Z" transform="translate(-58.678 -40.989)" fill="#ffe815"/>
  <path id="Tracé_87" data-name="Tracé 87" d="M252.623,196.009l8.665,9.546,7.969-15.934Z" transform="translate(-62.864 -47.187)" fill="#738bc5"/>
  <path id="Tracé_88" data-name="Tracé 88" d="M160.658,202.218,175.109,224.4l21.358-29.7Z" transform="translate(-39.979 -48.451)" fill="#880f50"/>
  <path id="Tracé_89" data-name="Tracé 89" d="M79.717,176.81l15.129,16.125L111.192,170.2Z" transform="translate(-19.837 -42.355)" fill="#880f50"/>
  <path id="Tracé_90" data-name="Tracé 90" d="M339.224,60.048l15.631,16.3L365.3,53.943Z" transform="translate(-84.415 -13.424)" fill="#880f50"/>
  <path id="Tracé_91" data-name="Tracé 91" d="M188.1,147.179l15.813,19.909,17.739-30.326Z" transform="translate(-46.809 -34.033)" fill="#482080"/>
  <path id="Tracé_92" data-name="Tracé 92" d="M75.911,136.547,87.14,156.514l20.98-22.327Z" transform="translate(-18.89 -33.392)" fill="#fe0"/>
  <path id="Tracé_93" data-name="Tracé 93" d="M63.751,160.925l15.33,16.341,15.846-19.53Z" transform="translate(-15.864 -39.252)" fill="#f77e0b"/>
  <rect id="Rectangle_21" data-name="Rectangle 21" width="154.371" height="93.347" transform="translate(67.536 110.367)" fill="#fff"/>
  <g id="Groupe_27" data-name="Groupe 27">
    <g id="Groupe_26" data-name="Groupe 26" clip-path="url(#clip-path-5)">
      <path id="Tracé_94" data-name="Tracé 94" d="M113.487,249.865A4.028,4.028,0,0,1,111.353,252a3.92,3.92,0,0,1-1.559.312h-1.161a3.958,3.958,0,0,1-1.565-.312,4.019,4.019,0,0,1-2.14-2.135,3.911,3.911,0,0,1-.312-1.559v-8.764a3.917,3.917,0,0,1,.312-1.559,4.051,4.051,0,0,1,.86-1.275,4.008,4.008,0,0,1,1.28-.859,3.945,3.945,0,0,1,1.565-.313h1.161a3.908,3.908,0,0,1,1.559.313,4.016,4.016,0,0,1,2.134,2.134,3.918,3.918,0,0,1,.312,1.559v.66l-1.468.227v-.887a2.53,2.53,0,0,0-.205-1.019,2.618,2.618,0,0,0-1.383-1.382,2.529,2.529,0,0,0-1.019-.206H108.7a2.532,2.532,0,0,0-1.019.206,2.7,2.7,0,0,0-.831.557,2.6,2.6,0,0,0-.563.825,2.529,2.529,0,0,0-.2,1.019v8.764a2.527,2.527,0,0,0,.2,1.018,2.662,2.662,0,0,0,1.394,1.395,2.544,2.544,0,0,0,1.019.2h1.025a2.541,2.541,0,0,0,1.019-.2,2.608,2.608,0,0,0,.826-.563,2.717,2.717,0,0,0,.557-.832,2.528,2.528,0,0,0,.205-1.018v-.888l1.468.239v.649a3.911,3.911,0,0,1-.312,1.559" transform="translate(-26.033 -58.612)" fill="#007cbb"/>
      <path id="Tracé_95" data-name="Tracé 95" d="M127.795,253.631l-.774-1.161a3.637,3.637,0,0,1-1.2,1.008,3.305,3.305,0,0,1-1.571.38H123.9a3.354,3.354,0,0,1-1.331-.267,3.418,3.418,0,0,1-1.827-1.828,3.337,3.337,0,0,1-.267-1.331v-.114a3.345,3.345,0,0,1,.267-1.331,3.418,3.418,0,0,1,1.827-1.828,3.354,3.354,0,0,1,1.331-.267h2.96v-1.8a1.981,1.981,0,0,0-.159-.79,2.013,2.013,0,0,0-1.076-1.076,1.975,1.975,0,0,0-.791-.16h-.82a1.969,1.969,0,0,0-.791.16,2.051,2.051,0,0,0-.643.432,2.023,2.023,0,0,0-.433.644,1.981,1.981,0,0,0-.159.79v.421l-1.4-.228v-.113a3.365,3.365,0,0,1,.267-1.333,3.415,3.415,0,0,1,1.827-1.826,3.348,3.348,0,0,1,1.332-.267h.82a3.348,3.348,0,0,1,1.332.267,3.417,3.417,0,0,1,1.826,1.826,3.352,3.352,0,0,1,.267,1.333v8.456Zm-.933-5.646H123.9a1.995,1.995,0,0,0-1.434.6,2.121,2.121,0,0,0-.433.648,1.984,1.984,0,0,0-.159.791v.49a1.984,1.984,0,0,0,.159.791,2.062,2.062,0,0,0,.433.643,2.037,2.037,0,0,0,.643.433,1.987,1.987,0,0,0,.791.159h.934a1.987,1.987,0,0,0,.791-.159,2.037,2.037,0,0,0,.643-.433,2.062,2.062,0,0,0,.433-.643,1.984,1.984,0,0,0,.159-.791Z" transform="translate(-29.98 -60.159)" fill="#007cbb"/>
      <path id="Tracé_96" data-name="Tracé 96" d="M146.779,253.631v-8.536a1.984,1.984,0,0,0-.159-.791,2.019,2.019,0,0,0-1.076-1.076,1.982,1.982,0,0,0-.791-.16h-.695a1.981,1.981,0,0,0-.79.16,2.1,2.1,0,0,0-.649.433,1.99,1.99,0,0,0-.6,1.434v8.536h-1.389v-8.536a1.995,1.995,0,0,0-.6-1.434,2.107,2.107,0,0,0-.648-.433,1.985,1.985,0,0,0-.792-.16H137.9a1.984,1.984,0,0,0-.791.16,2.02,2.02,0,0,0-1.076,1.076,1.984,1.984,0,0,0-.159.791v8.536h-1.4V241.976h.466l.762,1.183a3.509,3.509,0,0,1,1.2-1.03,3.331,3.331,0,0,1,1.577-.38h.113a3.382,3.382,0,0,1,3.017,1.785,3.378,3.378,0,0,1,.535-.728,3.523,3.523,0,0,1,.705-.563,3.569,3.569,0,0,1,.842-.364,3.413,3.413,0,0,1,.945-.13h.114a3.361,3.361,0,0,1,1.332.267,3.426,3.426,0,0,1,1.827,1.827,3.358,3.358,0,0,1,.267,1.332v8.456Z" transform="translate(-33.464 -60.159)" fill="#007cbb"/>
      <path id="Tracé_97" data-name="Tracé 97" d="M163.87,251.764a3.415,3.415,0,0,1-1.826,1.827,3.348,3.348,0,0,1-1.332.267h-.353a3.353,3.353,0,0,1-2.606-1.206V258.3h-1.4v-16.32h.467l.762,1.183a3.51,3.51,0,0,1,1.2-1.03,3.331,3.331,0,0,1,1.577-.381h.353a3.361,3.361,0,0,1,1.332.267,3.422,3.422,0,0,1,1.826,1.827,3.348,3.348,0,0,1,.267,1.332v5.258a3.342,3.342,0,0,1-.267,1.332m-1.131-6.669a1.985,1.985,0,0,0-.16-.791,2.015,2.015,0,0,0-1.076-1.075,1.975,1.975,0,0,0-.791-.16h-.934a1.969,1.969,0,0,0-.791.16,2.015,2.015,0,0,0-1.076,1.075,1.984,1.984,0,0,0-.159.791v5.418a1.987,1.987,0,0,0,.159.791,2.062,2.062,0,0,0,.433.643,2.026,2.026,0,0,0,.643.432,1.969,1.969,0,0,0,.791.159h.934a1.974,1.974,0,0,0,.791-.159,2.034,2.034,0,0,0,.643-.432,2.062,2.062,0,0,0,.433-.643,1.987,1.987,0,0,0,.16-.791Z" transform="translate(-38.908 -60.159)" fill="#007cbb"/>
      <path id="Tracé_98" data-name="Tracé 98" d="M177.669,253.706l-.774-1.184a3.528,3.528,0,0,1-1.2,1.031,3.3,3.3,0,0,1-1.571.381h-.353a3.358,3.358,0,0,1-1.332-.267,3.42,3.42,0,0,1-1.827-1.827,3.356,3.356,0,0,1-.267-1.332v-8.456h1.4v8.537a1.968,1.968,0,0,0,.159.79,2.065,2.065,0,0,0,.433.644,2.038,2.038,0,0,0,.643.432,1.969,1.969,0,0,0,.791.159h.934a1.974,1.974,0,0,0,.791-.159,2.008,2.008,0,0,0,1.075-1.076,1.968,1.968,0,0,0,.16-.79v-8.537h1.4v11.655Z" transform="translate(-42.391 -60.234)" fill="#007cbb"/>
      <path id="Tracé_99" data-name="Tracé 99" d="M192.363,250.672a2.927,2.927,0,0,1-.285,1.292,3.094,3.094,0,0,1-.774,1.007,3.6,3.6,0,0,1-1.133.654,3.921,3.921,0,0,1-1.348.233h-.934a3.485,3.485,0,0,1-1.349-.267,3.581,3.581,0,0,1-1.9-1.828,3.129,3.129,0,0,1-.29-1.331v-.466l1.4-.228v.774a1.81,1.81,0,0,0,.177.791,2.076,2.076,0,0,0,.472.643,2.251,2.251,0,0,0,.682.432,2.1,2.1,0,0,0,.808.159h.934a2.594,2.594,0,0,0,.808-.125,2.237,2.237,0,0,0,.688-.358,1.736,1.736,0,0,0,.478-.563,1.564,1.564,0,0,0,.177-.751,1.777,1.777,0,0,0-.273-1.025,2.268,2.268,0,0,0-.723-.666,4.682,4.682,0,0,0-1.025-.444c-.383-.117-.776-.236-1.179-.353s-.795-.252-1.177-.4a3.781,3.781,0,0,1-1.025-.6,2.739,2.739,0,0,1-.723-.927,3.15,3.15,0,0,1-.273-1.389,3.023,3.023,0,0,1,.273-1.291,3.114,3.114,0,0,1,.74-1.007,3.374,3.374,0,0,1,1.088-.654,3.732,3.732,0,0,1,1.326-.234h.82a3.348,3.348,0,0,1,1.332.267,3.422,3.422,0,0,1,1.827,1.826,3.378,3.378,0,0,1,.267,1.333v.045l-1.4.228v-.353a1.974,1.974,0,0,0-.16-.791,2.01,2.01,0,0,0-1.075-1.075,1.975,1.975,0,0,0-.791-.16H188a2.46,2.46,0,0,0-.792.125,1.926,1.926,0,0,0-.642.358,1.675,1.675,0,0,0-.593,1.315,1.653,1.653,0,0,0,.273.985,2.28,2.28,0,0,0,.723.643,4.818,4.818,0,0,0,1.024.438q.575.177,1.173.364t1.173.427a3.99,3.99,0,0,1,1.024.615,2.784,2.784,0,0,1,.723.939,3.176,3.176,0,0,1,.273,1.394" transform="translate(-45.875 -60.159)" fill="#007cbb"/>
      <path id="Tracé_100" data-name="Tracé 100" d="M117.007,179.5a5.145,5.145,0,0,1-.469,2.179,5.847,5.847,0,0,1-3.086,2.982,5.625,5.625,0,0,1-2.2.437h-1.638a5.62,5.62,0,0,1-2.2-.437,5.847,5.847,0,0,1-3.086-2.982,5.134,5.134,0,0,1-.469-2.179v-.907l2.052-.333v1.24a3.3,3.3,0,0,0,.31,1.423,3.858,3.858,0,0,0,.835,1.161,3.9,3.9,0,0,0,1.216.787,3.774,3.774,0,0,0,1.456.287h1.432a3.717,3.717,0,0,0,1.447-.287,3.938,3.938,0,0,0,1.209-.787,3.843,3.843,0,0,0,.835-1.161,3.3,3.3,0,0,0,.311-1.423v-.684a3.791,3.791,0,0,0-.462-1.958,4.353,4.353,0,0,0-1.224-1.327,7.97,7.97,0,0,0-1.725-.931q-.963-.381-1.981-.763t-1.98-.843a7.211,7.211,0,0,1-1.726-1.153,5.187,5.187,0,0,1-1.224-1.695,5.871,5.871,0,0,1-.461-2.465v-.43a5.444,5.444,0,0,1,.437-2.178,5.6,5.6,0,0,1,2.99-2.983,5.509,5.509,0,0,1,2.187-.437h1.463a5.453,5.453,0,0,1,2.179.437,5.625,5.625,0,0,1,2.982,2.983,5.458,5.458,0,0,1,.438,2.178v.588l-2.052.335v-.923a3.535,3.535,0,0,0-.286-1.423,3.674,3.674,0,0,0-1.933-1.933,3.541,3.541,0,0,0-1.423-.286h-1.272a3.536,3.536,0,0,0-1.423.286,3.787,3.787,0,0,0-1.161.78,3.626,3.626,0,0,0-.788,1.153,3.535,3.535,0,0,0-.285,1.423v.43a3.453,3.453,0,0,0,.46,1.845,4.325,4.325,0,0,0,1.225,1.281,8.737,8.737,0,0,0,1.726.922q.962.39,1.98.8t1.98.89a7.515,7.515,0,0,1,1.725,1.193,5.312,5.312,0,0,1,1.225,1.726,6,6,0,0,1,.461,2.482Z" transform="translate(-25.844 -40.227)" fill="#1a1818"/>
      <path id="Tracé_101" data-name="Tracé 101" d="M132.115,185.646a4.257,4.257,0,0,1-1.678-.334,4.2,4.2,0,0,1-1.368-.923,4.481,4.481,0,0,1-.922-1.367,4.112,4.112,0,0,1-.343-1.671V171.219h-2.926v-1.861H127.8v-3.913l1.957-.317v4.23H133.9v1.861h-4.136v10.227a2.281,2.281,0,0,0,.183.916,2.383,2.383,0,0,0,.5.739,2.355,2.355,0,0,0,1.671.684H133.9v1.861Z" transform="translate(-31.076 -41.092)" fill="#1a1818"/>
      <path id="Tracé_102" data-name="Tracé 102" d="M164.65,172.7a5.605,5.605,0,0,1-2.99,2.982,5.518,5.518,0,0,1-2.187.438H154.3v8.764h-2.051v-22.81h7.222a5.518,5.518,0,0,1,2.187.438,5.577,5.577,0,0,1,2.99,2.99,5.519,5.519,0,0,1,.437,2.187v2.83a5.467,5.467,0,0,1-.437,2.18m-1.614-5.01a3.552,3.552,0,0,0-.286-1.424,3.735,3.735,0,0,0-1.948-1.949,3.542,3.542,0,0,0-1.424-.286H154.3v10.132h5.074a3.542,3.542,0,0,0,1.424-.286,3.78,3.78,0,0,0,1.161-.779,3.614,3.614,0,0,0,.788-1.153,3.555,3.555,0,0,0,.286-1.424Z" transform="translate(-37.887 -40.333)" fill="#1a1818"/>
      <path id="Tracé_103" data-name="Tracé 103" d="M183.7,186.942l-1.082-1.622a5.069,5.069,0,0,1-1.67,1.407,4.608,4.608,0,0,1-2.195.533h-.494a4.694,4.694,0,0,1-1.861-.373,4.777,4.777,0,0,1-2.553-2.553,4.694,4.694,0,0,1-.373-1.861v-.159a4.7,4.7,0,0,1,.373-1.861A4.773,4.773,0,0,1,176.4,177.9a4.681,4.681,0,0,1,1.861-.374H182.4v-2.513a2.774,2.774,0,0,0-.222-1.1,2.82,2.82,0,0,0-1.5-1.5,2.77,2.77,0,0,0-1.106-.222h-1.145a2.775,2.775,0,0,0-1.106.222,2.822,2.822,0,0,0-1.5,1.5,2.774,2.774,0,0,0-.222,1.1v.589l-1.956-.318v-.158a4.678,4.678,0,0,1,.373-1.861,4.777,4.777,0,0,1,2.553-2.553,4.681,4.681,0,0,1,1.861-.374h1.145a4.682,4.682,0,0,1,1.861.374,4.777,4.777,0,0,1,2.553,2.553,4.678,4.678,0,0,1,.374,1.861v11.818Zm-1.3-7.889H178.26a2.8,2.8,0,0,0-2,.835,2.971,2.971,0,0,0-.6.907,2.778,2.778,0,0,0-.222,1.106v.684a2.775,2.775,0,0,0,.222,1.106,2.821,2.821,0,0,0,1.5,1.5,2.772,2.772,0,0,0,1.1.223h1.3a2.77,2.77,0,0,0,1.106-.223,2.845,2.845,0,0,0,.9-.6,2.876,2.876,0,0,0,.6-.9,2.775,2.775,0,0,0,.222-1.106Z" transform="translate(-43.168 -42.388)" fill="#1a1818"/>
      <path id="Tracé_104" data-name="Tracé 104" d="M202.873,187.047l-1.082-1.654a4.907,4.907,0,0,1-1.671,1.439,4.6,4.6,0,0,1-2.194.533h-.493a4.691,4.691,0,0,1-1.861-.373,4.777,4.777,0,0,1-2.553-2.553,4.681,4.681,0,0,1-.374-1.861V170.76H194.6v11.929a2.762,2.762,0,0,0,.222,1.106,2.823,2.823,0,0,0,1.5,1.5,2.773,2.773,0,0,0,1.106.223h1.3a2.773,2.773,0,0,0,1.106-.223,2.845,2.845,0,0,0,.9-.6,2.874,2.874,0,0,0,.6-.9,2.763,2.763,0,0,0,.223-1.106V170.76h1.956v16.287Z" transform="translate(-47.939 -42.493)" fill="#1a1818"/>
      <rect id="Rectangle_22" data-name="Rectangle 22" width="1.956" height="22.809" transform="translate(159.495 121.745)" fill="#1a1818"/>
      <path id="Tracé_105" data-name="Tracé 105" d="M117.007,214.257a5.145,5.145,0,0,1-.469,2.179,5.854,5.854,0,0,1-3.086,2.982,5.626,5.626,0,0,1-2.2.438h-1.638a5.62,5.62,0,0,1-2.2-.438,5.854,5.854,0,0,1-3.086-2.982,5.134,5.134,0,0,1-.469-2.179v-.907l2.052-.334v1.24a3.294,3.294,0,0,0,.31,1.423,3.859,3.859,0,0,0,.835,1.161,3.9,3.9,0,0,0,1.216.787,3.774,3.774,0,0,0,1.456.286h1.432a3.716,3.716,0,0,0,1.447-.286,3.938,3.938,0,0,0,1.209-.787,3.844,3.844,0,0,0,.835-1.161,3.294,3.294,0,0,0,.311-1.423v-.684a3.786,3.786,0,0,0-.462-1.957,4.355,4.355,0,0,0-1.224-1.328,7.934,7.934,0,0,0-1.725-.93q-.963-.382-1.981-.764t-1.98-.843a7.188,7.188,0,0,1-1.726-1.153,5.192,5.192,0,0,1-1.224-1.694,5.876,5.876,0,0,1-.461-2.465v-.43a5.444,5.444,0,0,1,.437-2.178,5.6,5.6,0,0,1,2.99-2.983,5.522,5.522,0,0,1,2.187-.437h1.463a5.466,5.466,0,0,1,2.179.437,5.625,5.625,0,0,1,2.982,2.983,5.457,5.457,0,0,1,.438,2.178v.589l-2.052.334v-.923a3.538,3.538,0,0,0-.286-1.423,3.67,3.67,0,0,0-1.933-1.933,3.529,3.529,0,0,0-1.423-.287h-1.272a3.524,3.524,0,0,0-1.423.287,3.772,3.772,0,0,0-1.161.78,3.626,3.626,0,0,0-.788,1.153,3.537,3.537,0,0,0-.285,1.423v.43a3.45,3.45,0,0,0,.46,1.844,4.316,4.316,0,0,0,1.225,1.281,8.659,8.659,0,0,0,1.726.922q.962.39,1.98.8t1.98.89a7.472,7.472,0,0,1,1.725,1.194,5.3,5.3,0,0,1,1.225,1.725,6,6,0,0,1,.461,2.482Z" transform="translate(-25.844 -48.876)" fill="#1a1818"/>
      <path id="Tracé_106" data-name="Tracé 106" d="M132.115,220.4a4.257,4.257,0,0,1-1.678-.334,4.2,4.2,0,0,1-1.368-.923,4.485,4.485,0,0,1-.922-1.368,4.105,4.105,0,0,1-.343-1.67V205.976h-2.926v-1.861H127.8V200.2l1.957-.317v4.23H133.9v1.861h-4.136V216.2a2.271,2.271,0,0,0,.183.914,2.341,2.341,0,0,0,1.249,1.241,2.332,2.332,0,0,0,.922.183H133.9V220.4Z" transform="translate(-31.076 -49.741)" fill="#1a1818"/>
      <path id="Tracé_107" data-name="Tracé 107" d="M164.643,219.538h-.652l-1.193-1.83a5.625,5.625,0,0,1-1.813,1.567,4.868,4.868,0,0,1-2.37.581h-1.193a5.509,5.509,0,0,1-2.187-.438,5.605,5.605,0,0,1-2.99-2.982,5.461,5.461,0,0,1-.437-2.179V202.009a5.457,5.457,0,0,1,.437-2.178,5.6,5.6,0,0,1,2.99-2.983,5.509,5.509,0,0,1,2.187-.437h1.622a5.448,5.448,0,0,1,2.179.437,5.623,5.623,0,0,1,2.983,2.983,5.457,5.457,0,0,1,.437,2.178v.923l-2.051.318v-1.241a3.52,3.52,0,0,0-.287-1.423,3.661,3.661,0,0,0-1.933-1.933,3.524,3.524,0,0,0-1.423-.287h-1.431a3.524,3.524,0,0,0-1.423.287,3.8,3.8,0,0,0-1.161.78,3.637,3.637,0,0,0-.788,1.154,3.545,3.545,0,0,0-.285,1.423v12.248a3.551,3.551,0,0,0,.285,1.423,3.725,3.725,0,0,0,1.949,1.948,3.536,3.536,0,0,0,1.423.286h1.431a3.536,3.536,0,0,0,1.423-.286,3.635,3.635,0,0,0,1.154-.787,3.8,3.8,0,0,0,.779-1.161,3.526,3.526,0,0,0,.287-1.423V209.5h-3.643v-1.957h5.694Z" transform="translate(-37.777 -48.876)" fill="#1a1818"/>
      <path id="Tracé_108" data-name="Tracé 108" d="M184.392,219.089a4.777,4.777,0,0,1-2.553,2.553,4.682,4.682,0,0,1-1.861.374h-1.3a4.681,4.681,0,0,1-1.861-.374,4.777,4.777,0,0,1-2.553-2.553,4.694,4.694,0,0,1-.373-1.861v-7.349a4.7,4.7,0,0,1,.373-1.861,4.784,4.784,0,0,1,2.553-2.553,4.693,4.693,0,0,1,1.861-.373h1.3a4.694,4.694,0,0,1,1.861.373,4.784,4.784,0,0,1,2.553,2.553,4.7,4.7,0,0,1,.373,1.861v3.834h-8.923v3.627a2.772,2.772,0,0,0,.222,1.106,2.823,2.823,0,0,0,1.5,1.5,2.775,2.775,0,0,0,1.106.222h1.3a2.769,2.769,0,0,0,1.106-.222,2.821,2.821,0,0,0,1.5-1.5,2.772,2.772,0,0,0,.222-1.106v-1.082l1.956.319v.652a4.694,4.694,0,0,1-.373,1.861m-1.583-9.32a2.772,2.772,0,0,0-.222-1.106,2.815,2.815,0,0,0-1.5-1.5,2.757,2.757,0,0,0-1.106-.223h-1.3a2.763,2.763,0,0,0-1.106.223,2.817,2.817,0,0,0-1.5,1.5,2.772,2.772,0,0,0-.222,1.106v2.417h6.967Z" transform="translate(-43.271 -51.037)" fill="#1a1818"/>
      <path id="Tracé_109" data-name="Tracé 109" d="M203.447,219.089a4.777,4.777,0,0,1-2.553,2.553,4.682,4.682,0,0,1-1.861.374h-1.3a4.681,4.681,0,0,1-1.861-.374,4.777,4.777,0,0,1-2.553-2.553,4.693,4.693,0,0,1-.373-1.861v-7.349a4.7,4.7,0,0,1,.373-1.861,4.784,4.784,0,0,1,2.553-2.553,4.693,4.693,0,0,1,1.861-.373h1.3a4.694,4.694,0,0,1,1.861.373,4.784,4.784,0,0,1,2.553,2.553,4.7,4.7,0,0,1,.373,1.861v7.349a4.694,4.694,0,0,1-.373,1.861m-1.583-9.32a2.772,2.772,0,0,0-.222-1.106,2.815,2.815,0,0,0-1.5-1.5,2.757,2.757,0,0,0-1.106-.223h-1.3a2.762,2.762,0,0,0-1.106.223,2.817,2.817,0,0,0-1.5,1.5,2.772,2.772,0,0,0-.222,1.106v7.571a2.772,2.772,0,0,0,.222,1.106,2.823,2.823,0,0,0,1.5,1.5,2.775,2.775,0,0,0,1.106.222h1.3a2.769,2.769,0,0,0,1.106-.222,2.821,2.821,0,0,0,1.5-1.5,2.772,2.772,0,0,0,.222-1.106Z" transform="translate(-48.013 -51.037)" fill="#1a1818"/>
      <path id="Tracé_110" data-name="Tracé 110" d="M216.9,207.272a2.759,2.759,0,0,0-1.106.222,2.823,2.823,0,0,0-1.5,1.5,2.759,2.759,0,0,0-.223,1.106V221.7h-1.956V205.411h.652l1.066,1.655a4.874,4.874,0,0,1,1.677-1.44,4.652,4.652,0,0,1,2.2-.533h1.146v2.179Z" transform="translate(-52.784 -51.037)" fill="#1a1818"/>
      <path id="Tracé_111" data-name="Tracé 111" d="M235.138,225.563a4.243,4.243,0,0,1-1.026,1.416,4.742,4.742,0,0,1-1.526.915,5.3,5.3,0,0,1-1.861.325h-.811a5.285,5.285,0,0,1-1.861-.325,4.729,4.729,0,0,1-1.527-.915,4.222,4.222,0,0,1-1.026-1.416,4.349,4.349,0,0,1-.374-1.813v-.064a4.3,4.3,0,0,1,.35-1.749,4.386,4.386,0,0,1,.955-1.384,3.46,3.46,0,0,1-1.671-2.99,3.552,3.552,0,0,1,.366-1.6,3.23,3.23,0,0,1,1-1.2,4.9,4.9,0,0,1-1.209-1.607,4.715,4.715,0,0,1-.445-2.051V209.88a4.684,4.684,0,0,1,.374-1.861,4.771,4.771,0,0,1,2.553-2.553,4.691,4.691,0,0,1,1.861-.373h.811a4.649,4.649,0,0,1,2.2.533,4.882,4.882,0,0,1,1.677,1.44l1.066-1.654h.652v5.694a4.693,4.693,0,0,1-.373,1.861,4.777,4.777,0,0,1-2.553,2.553,4.682,4.682,0,0,1-1.861.374h-2.83a1.545,1.545,0,0,0-.637.135,1.857,1.857,0,0,0-.533.358,1.54,1.54,0,0,0-.358.533,1.671,1.671,0,0,0-.127.645,1.609,1.609,0,0,0,.127.636,1.667,1.667,0,0,0,.89.891,1.626,1.626,0,0,0,.637.127h2.672a5.3,5.3,0,0,1,1.861.326,4.716,4.716,0,0,1,1.526.915,4.236,4.236,0,0,1,1.026,1.416,4.355,4.355,0,0,1,.373,1.813v.064a4.361,4.361,0,0,1-.373,1.813M233.73,209.77a2.8,2.8,0,0,0-.835-2,2.951,2.951,0,0,0-.907-.6,2.76,2.76,0,0,0-1.106-.223h-1.622a2.762,2.762,0,0,0-1.106.223,2.812,2.812,0,0,0-1.5,1.5,2.744,2.744,0,0,0-.223,1.106v1.447a2.747,2.747,0,0,0,.223,1.106,2.819,2.819,0,0,0,1.5,1.5,2.775,2.775,0,0,0,1.106.222h1.622a2.772,2.772,0,0,0,1.106-.222,2.94,2.94,0,0,0,.907-.6,2.794,2.794,0,0,0,.835-2Zm-.08,13.821a2.445,2.445,0,0,0-.222-1.058,2.287,2.287,0,0,0-.6-.787,2.786,2.786,0,0,0-.9-.493,3.415,3.415,0,0,0-1.106-.176h-1a3.407,3.407,0,0,0-1.1.176,2.774,2.774,0,0,0-.9.493,2.285,2.285,0,0,0-.6.787,2.424,2.424,0,0,0-.223,1.058v.255a2.343,2.343,0,0,0,.827,1.837,2.709,2.709,0,0,0,.9.5,3.427,3.427,0,0,0,1.1.175h1a3.435,3.435,0,0,0,1.106-.175,2.72,2.72,0,0,0,.9-.5,2.337,2.337,0,0,0,.827-1.837Z" transform="translate(-55.859 -51.037)" fill="#1a1818"/>
      <path id="Tracé_112" data-name="Tracé 112" d="M254.238,219.089a4.779,4.779,0,0,1-2.552,2.553,4.685,4.685,0,0,1-1.861.374h-1.3a4.678,4.678,0,0,1-1.861-.374,4.77,4.77,0,0,1-2.553-2.553,4.681,4.681,0,0,1-.374-1.861v-7.349a4.684,4.684,0,0,1,.374-1.861,4.777,4.777,0,0,1,2.553-2.553,4.69,4.69,0,0,1,1.861-.373h1.3a4.7,4.7,0,0,1,1.861.373,4.786,4.786,0,0,1,2.552,2.553,4.683,4.683,0,0,1,.373,1.861v3.834h-8.922v3.627a2.759,2.759,0,0,0,.222,1.106,2.823,2.823,0,0,0,1.5,1.5,2.772,2.772,0,0,0,1.106.222h1.3a2.775,2.775,0,0,0,1.106-.222,2.823,2.823,0,0,0,1.5-1.5,2.772,2.772,0,0,0,.222-1.106v-1.082l1.956.319v.652a4.681,4.681,0,0,1-.373,1.861m-1.583-9.32a2.772,2.772,0,0,0-.222-1.106,2.817,2.817,0,0,0-1.5-1.5,2.763,2.763,0,0,0-1.106-.223h-1.3a2.76,2.76,0,0,0-1.106.223,2.817,2.817,0,0,0-1.5,1.5,2.759,2.759,0,0,0-.222,1.106v2.417h6.966Z" transform="translate(-60.652 -51.037)" fill="#1a1818"/>
      <path id="Tracé_113" data-name="Tracé 113" d="M273.984,217.562a4.083,4.083,0,0,1-.4,1.805,4.327,4.327,0,0,1-1.082,1.408,5.015,5.015,0,0,1-1.583.915,5.492,5.492,0,0,1-1.885.327h-1.3a4.858,4.858,0,0,1-1.885-.374,5,5,0,0,1-2.656-2.553,4.358,4.358,0,0,1-.406-1.861v-.652l1.956-.319v1.082a2.544,2.544,0,0,0,.246,1.106,2.925,2.925,0,0,0,.66.9,3.172,3.172,0,0,0,.955.6,2.944,2.944,0,0,0,1.13.222h1.3a3.655,3.655,0,0,0,1.129-.175,3.144,3.144,0,0,0,.962-.5,2.446,2.446,0,0,0,.669-.787,2.194,2.194,0,0,0,.246-1.05,2.478,2.478,0,0,0-.382-1.431,3.168,3.168,0,0,0-1.01-.931,6.563,6.563,0,0,0-1.431-.62q-.8-.247-1.646-.493t-1.647-.565a5.323,5.323,0,0,1-1.431-.835,3.834,3.834,0,0,1-1.01-1.3,4.4,4.4,0,0,1-.381-1.94,4.229,4.229,0,0,1,.381-1.805,4.337,4.337,0,0,1,1.034-1.408,4.7,4.7,0,0,1,1.519-.915,5.227,5.227,0,0,1,1.853-.326h1.145a4.7,4.7,0,0,1,1.861.373,4.786,4.786,0,0,1,2.552,2.553,4.7,4.7,0,0,1,.373,1.861v.064l-1.956.318v-.493a2.772,2.772,0,0,0-.222-1.106,2.817,2.817,0,0,0-1.5-1.5,2.765,2.765,0,0,0-1.106-.223h-1.145a3.452,3.452,0,0,0-1.106.175,2.727,2.727,0,0,0-.9.5,2.337,2.337,0,0,0-.827,1.837,2.3,2.3,0,0,0,.382,1.375,3.193,3.193,0,0,0,1.01.9,6.772,6.772,0,0,0,1.432.612q.8.248,1.638.509t1.638.6a5.523,5.523,0,0,1,1.432.859,3.906,3.906,0,0,1,1.01,1.312,4.447,4.447,0,0,1,.382,1.948" transform="translate(-65.394 -51.037)" fill="#1a1818"/>
    </g>
  </g>
</svg>
